 http://desibbrg.org/images/66952052392581364616.gif 
http://desibbrg.org/images/94364997113228859652.png 
http://desibbrg.org/images/93868012916156674340.png 
http://desibbrg.org/images/56828077755991284559.png 
http://desibbrg.org/images/86702572565267615479.png

Media Info - 
Video
Format                         : AVC
Format/Info                    : Advanced Video Codec
Format profile                 : Main@L2.1
Format settings, CABAC         : Yes
Format settings, ReFrames      : 4 frames
Codec ID                       : avc1
Codec ID/Info                  : Advanced Video Coding
Duration                       : 28mn 11s
Bit rate mode                  : Variable
Bit rate                       : 199 Kbps
Width                          : 474 pixels
Height                         : 236 pixels
Display aspect ratio           : 2.008
Frame rate mode                : Constant
Frame rate                     : 25.000 fps
Color space                    : YUV
Chroma subsampling             : 4:2:0
Bit depth                      : 8 bits
Scan type                      : Progressive
Bits/(Pixel*Frame)             : 0.071
Stream size                    : 40.2 MiB (58%)
Writing library                : x264 core 120

Audio
Format                         : AAC
Format/Info                    : Advanced Audio Codec
Format profile                 : LC
Codec ID                       : 40
Duration                       : 28mn 11s
Bit rate mode                  : Variable
Bit rate                       : 144 Kbps
Maximum bit rate               : 213 Kbps
Channel(s)                     : 2 channels
Channel positions              : Front: L R
Sampling rate                  : 44.1 KHz
Compression mode               : Lossy
Delay relative to video        : 80ms
Stream size                    : 28.6 MiB (41%)

Ripper : Saket

Seeding 24x7... Extreme Seeding...


Enjoy!
